<?xml version="1.0" encoding="utf-8"?>
<?xml-stylesheet type="text/xsl" href="rss1.xsl"?>
<rss version="2.0" xmlns:atom="http://www.w3.org/2005/Atom" xmlns:content="http://purl.org/rss/1.0/modules/content/" xmlns:dc="http://purl.org/dc/elements/1.1/" xmlns:media="http://search.yahoo.com/mrss/">
<channel>
 <title>sharemania</title>
 <link>http://www.sharemania.us/</link>
 <atom:link href="http://www.gettyimg.com/" rel="self" type="application/rss+xml" />

 
                <item>
                <title><![CDATA[【Unreleased/Unofficial (lossy)】Dolby Atmos - Miley Cyrus - Bangerz (NRX Atmos Mix) / E-AC-3 JOC 5.1 / 768kbps]]></title>
                <link><![CDATA[https://sharemania.us/threads/miley-cyrus-bangerz-nrx-atmos-mix-e-ac-3-joc-5-1-768kbps.281874/]]></link>
                <description><![CDATA[<article>
				<blockquote class="messageText SelectQuoteContainer ugc baseHtml">
					
					<div style="text-align: center"><img src="https://images2.imgbox.com/66/1c/60BebDPh_o.png" class="bbCodeImage LbImage" alt="[​IMG]" data-url="https://images2.imgbox.com/66/1c/60BebDPh_o.png" style=""><br>
<b><span style="font-size: 18px"><span style="color: #0000ff">It brings me a lot of nostalgia when I discovered this album<br>
So I decided to give it a chance and remix it myself<br>
This is my version.<br>
<br>
</span></span></b>​</div><b><br>
<span style="font-size: 15px"><span style="color: #000000">MP4<br>
Format: Dolby Digital Plus with Dolby Atmos<br>
Codec: Enhanced AC-3 With Joint Object Coding<br>
Channels: 5.1 (15.1 if decoded)<br>
Bits: 16bits<br>
kHz: 48.0kHz<br>
Bitrate: 768kbps<br>
Date: 2013<br>
<br>
<br>
<br>
</span></span></b><br>
<div style="text-align: center"><b><span style="font-size: 15px"><span style="color: #000000">Download (Google Drive)<br>




<div class="bbCodeBlock bbCodeVfcHH HiddenContent">
	<div class="attribution type">Hidden Content:</div>
	<blockquote>You must reply before you can see the hidden data contained here.</blockquote>
</div></span></span></b>​</div>
					<div class="messageTextEndMarker">&nbsp;</div>
				</blockquote>
			</article>]]></description>
                <author><![CDATA[narxerino]]></author>
                </item>

                
                <item>
                <title><![CDATA[【Apple Music】WEB-RiP - Miley Cyrus - Wrecking Ball (Official Music Video + NRX Atmos Mix) / AM 1080p / E-AC-3 JOC 5.1 / 768kbps]]></title>
                <link><![CDATA[https://sharemania.us/threads/miley-cyrus-wrecking-ball-official-music-video-nrx-atmos-mix-am-1080p-e-ac-3-joc-5-1-768kbps.281873/]]></link>
                <description><![CDATA[<article>
				<blockquote class="messageText SelectQuoteContainer ugc baseHtml">
					
					<div style="text-align: center"><img src="https://images2.imgbox.com/41/6b/pysxg90z_o.jpg" class="bbCodeImage LbImage" alt="[​IMG]" data-url="https://images2.imgbox.com/41/6b/pysxg90z_o.jpg" style=""><br>
<b><span style="font-size: 18px"><span style="color: #0000ff">Audio remixed by me<br>
<br>
Listen the Bangerz album remixed by me<br>
<a href="https://sharemania.us/threads/miley-cyrus-bangerz-nrx-atmos-mix-e-ac-3-joc-5-1-768kbps.281874/" class="internalLink">Dolby Atmos - Miley Cyrus - Bangerz (NRX Atmos Mix) / E-AC-3 JOC 5.1 / 768kbps | ShareMania.US</a><br>
<br>
</span></span></b>​</div><b><span style="font-size: 15px"><span style="color: #000000">


<div class="ToggleTriggerAnchor bbCodeSpoilerContainer">
	<button type="button" class="button bbCodeSpoilerButton ToggleTrigger Tooltip JsOnly" data-target="&gt; .SpoilerTarget"><span>Spoiler: <span class="SpoilerTitle">MediaInfo</span></span></button>
	<div class="SpoilerTarget bbCodeSpoilerText">Format                      : Matroska<br>
Format version              : Version 4<br>
File size                   : 198 MiB<br>
Duration                    : 3 min 42 s<br>
Overall bit rate            : 7 454 kb/s<br>
Frame rate                  : 23.976 FPS<br>
Movie name                  : Wrecking Ball<br>
Encoded date                : 2025-08-18 08:11:06 UTC<br>
Writing application         : mkvmerge v88.0 ('All I Know') 64-bit<br>
Writing library             : libebml v1.4.5 + libmatroska v1.7.1<br>
Cover                       : Yes<br>
Attachments                 : cover.jpg<br>
<br>
Video<br>
ID                          : 1<br>
Format                      : AVC<br>
Format/Info                 : Advanced Video Codec<br>
Format profile              : High@L4<br>
Format settings             : CABAC / 4 Ref Frames<br>
Format settings, CABAC      : Yes<br>
Format settings, Reference  : 4 frames<br>
Format settings, Slice coun : 8 slices per frame<br>
Codec ID                    : V_MPEG4/ISO/AVC<br>
Duration                    : 3 min 41 s<br>
Bit rate                    : 6 717 kb/s<br>
Width                       : 1 920 pixels<br>
Height                      : 1 080 pixels<br>
Display aspect ratio        : 16:9<br>
Frame rate mode             : Constant<br>
Frame rate                  : 23.976 (24000/1001) FPS<br>
Color space                 : YUV<br>
Chroma subsampling          : 4:2:0 (Type 2)<br>
Bit depth                   : 8 bits<br>
Scan type                   : Progressive<br>
Bits/(Pixel*Frame)          : 0.135<br>
Stream size                 : 177 MiB (90%)<br>
Default                     : Yes<br>
Forced                      : No<br>
Color range                 : Limited<br>
Color primaries             : BT.709<br>
Transfer characteristics    : BT.709<br>
Matrix coefficients         : BT.709<br>
<br>
Audio<br>
ID                          : 2<br>
Format                      : E-AC-3 JOC<br>
Format/Info                 : Enhanced AC-3 with Joint Object Coding<br>
Commercial name             : Dolby Digital Plus with Dolby Atmos<br>
Codec ID                    : A_EAC3<br>
Duration                    : 3 min 42 s<br>
Bit rate mode               : Constant<br>
Bit rate                    : 768 kb/s<br>
Channel(s)                  : 6 channels<br>
Channel layout              : L R C LFE Ls Rs<br>
Sampling rate               : 48.0 kHz<br>
Frame rate                  : 31.250 FPS (1536 SPF)<br>
Compression mode            : Lossy<br>
Stream size                 : 20.4 MiB (10%)<br>
Title                       : Dolby Atmos<br>
Service kind                : Complete Main<br>
Default                     : Yes<br>
Forced                      : No<br>
Complexity index            : 16<br>
Number of dynamic objects   : 15<br>
Bed channel count           : 1 channel<br>
Bed channel configuration   : LFE<br>
Dialog Normalization        : -18 dB<br>
compr                       : -0.28 dB<br>
dmixmod                     : Lt/Rt<br>
ltrtcmixlev                 : -3.0 dB<br>
ltrtsurmixlev               : -3.0 dB<br>
lorocmixlev                 : -3.0 dB<br>
lorosurmixlev               : -3.0 dB<br>
dialnorm_Average            : -18 dB<br>
dialnorm_Minimum            : -18 dB<br>
dialnorm_Maximum            : -18 dB</div>
</div></span></span></b><br>
<div style="text-align: center"><b><span style="font-size: 15px"><span style="color: #000000">Download (Google Drive)<br>




<div class="bbCodeBlock bbCodeVfcHH HiddenContent">
	<div class="attribution type">Hidden Content:</div>
	<blockquote>You must reply before you can see the hidden data contained here.</blockquote>
</div></span></span></b>​</div>
					<div class="messageTextEndMarker">&nbsp;</div>
				</blockquote>
			</article>]]></description>
                <author><![CDATA[narxerino]]></author>
                </item>

                
                <item>
                <title><![CDATA[【SD Live Performances】WEB-RiP - Camila Cabello Summer Sonic 2025]]></title>
                <link><![CDATA[https://sharemania.us/threads/camila-cabello-summer-sonic-2025.281876/]]></link>
                <description><![CDATA[<article>
				<blockquote class="messageText SelectQuoteContainer ugc baseHtml">
					
					Still waiting for a better quality<img src="styles/default/xenforo/smilies/cry-48.png" class="mceSmilie" alt=":cry:" title="Cry    :cry:"><br>




<div class="bbCodeBlock bbCodeVfcHH HiddenContent">
	<div class="attribution type">Hidden Content:</div>
	<blockquote>You must either reply or click 'Like' to see the hidden information contained here.</blockquote>
</div>
					<div class="messageTextEndMarker">&nbsp;</div>
				</blockquote>
			</article>]]></description>
                <author><![CDATA[1daisydove]]></author>
                </item>

                </channel></rss>